<?xml version="1.0" encoding="UTF-8" standalone="no"?>
<svg width="382px" height="305px" viewBox="0 0 382 305" version="1.1" xmlns="http://www.w3.org/2000/svg" xmlns:xlink="http://www.w3.org/1999/xlink">
    <!-- Generator: sketchtool 39.1 (31720) - http://www.bohemiancoding.com/sketch -->
    <title>4FD5C5F9-8F07-48CB-9992-6C8167FD5881</title>
    <desc>Created with sketchtool.</desc>
    <defs>
        <radialGradient cx="50%" cy="50%" fx="50%" fy="50%" r="100%" id="radialGradient-1">
            <stop stop-color="#FEFEFE" offset="0%"></stop>
            <stop stop-color="#FBFBFB" offset="100%"></stop>
        </radialGradient>
        <linearGradient x1="50%" y1="50%" x2="50%" y2="150%" id="linearGradient-2">
            <stop stop-color="#99571E" offset="0%"></stop>
            <stop stop-color="#2A1707" offset="100%"></stop>
        </linearGradient>
        <rect id="path-3" x="0" y="0" width="272.318501" height="130.158358"></rect>
        <path d="M326.593531,119.460411 L326.637946,119.460411 L326.637941,210.591459 C315.091456,210.591459 309.742317,164.546234 309.742317,164.546234 C309.742317,164.546234 307.307178,177.581745 299.484655,177.581745 C291.662132,177.581745 293.342054,150.032441 293.342054,150.032441 C293.342054,150.032441 287.624423,163.342192 275.491315,163.342192 C263.358206,163.342192 259.00328,157.348974 259.00328,157.348974 C259.00328,157.348974 265.390694,223.317907 252.289705,223.867256 C239.188716,224.416606 232.812926,160.406525 232.812926,160.406525 C232.812926,160.406525 220.829461,172.382079 210.099735,195.077346 C199.370009,217.772613 213.331802,227.937317 201.40814,227.937317 C189.484477,227.937317 190.761481,216.529508 177.98421,200.518168 C165.206939,184.506828 173.270274,175.422594 149.840883,163.317815 C126.411492,151.213037 118.470859,162.004949 118.470859,162.004949 C118.470859,162.004949 116.872637,204.918622 110.127768,204.918622 C103.382899,204.918622 96.5667683,175.241569 96.5667683,175.241569 L71.6139726,166.845491 C71.6139726,166.845491 71.6139731,192.878207 62.652102,194.394795 C53.6902309,195.911382 54.2942365,184.989652 54.2942365,184.989652 L54.2942365,119.460411 C54.2892829,119.312047 54.2857143,119.163463 54.2857143,119.014663 C54.2857143,99.5664655 115.246287,83.8005865 190.444965,83.8005865 C265.643643,83.8005865 326.604215,99.5664655 326.604215,119.014663 C326.604215,119.163463 326.600647,119.312047 326.593531,119.460411 Z" id="path-5"></path>
        <mask id="mask-6" maskContentUnits="userSpaceOnUse" maskUnits="objectBoundingBox" x="0" y="0" width="272.352232" height="144.13673" fill="white">
            <use xlink:href="#path-5"></use>
        </mask>
        <path d="M1.77985948,23.1788856 C1.77985948,23.1788856 1.77985948,24.2035832 6.67447307,24.2035832 C11.5690867,24.2035832 11.5690867,23.1788856 11.5690867,23.1788856 L11.5690867,106.979472 C11.5690867,106.979472 11.5690867,108.161749 6.67447307,108.161749 C1.77985948,108.161749 3.42472312,106.979472 1.77985948,106.979472 L1.77985948,23.1788856 Z" id="path-7"></path>
        <mask id="mask-8" maskContentUnits="userSpaceOnUse" maskUnits="objectBoundingBox" x="0" y="0" width="9.78922717" height="84.9828629" fill="white">
            <use xlink:href="#path-7"></use>
        </mask>
    </defs>
    <g id="Page-1" stroke="none" stroke-width="1" fill="none" fill-rule="evenodd">
        <g id="Desktop" transform="translate(-190.000000, -667.000000)">
            <g id="Cake" transform="translate(191.000000, 667.000000)">
                <g>
                    <ellipse id="Plate" stroke="#D4D4D4" fill="url(#radialGradient-1)" cx="190" cy="268.785924" rx="190" ry="35.2140762"></ellipse>
                    <path d="M325.703601,249.618768 C325.710717,249.767132 325.714286,249.915716 325.714286,250.064516 C325.714286,269.512713 264.753713,285.278592 189.555035,285.278592 C114.356357,285.278592 53.3957845,269.512713 53.3957845,250.064516 C53.3957845,248.695487 53.6978604,247.344704 54.2857143,246.016383 L54.2857143,119.460411 L326.604215,119.460411 L326.604215,249.618768 L325.703601,249.618768 Z" fill="url(#linearGradient-2)"></path>
                    <g id="Ribbon" transform="translate(54.285714, 119.460411)">
                        <mask id="mask-4" fill="white">
                            <use xlink:href="#path-3"></use>
                        </mask>
                        <g id="Mask"></g>
                        <path d="M275.738095,64.8648804 C283.843068,69.1643111 288.337237,73.9097429 288.337237,78.8973607 C288.337237,98.345558 220.005614,114.111437 135.714286,114.111437 C51.4229575,114.111437 -16.9086651,98.345558 -16.9086651,78.8973607 C-16.9086651,73.7300704 -12.0848711,68.8227292 -3.4195941,64.4019818 C20.0791196,76.8673036 73.9299513,85.5835777 136.604215,85.5835777 C198.499753,85.5835777 251.789757,77.0825572 275.738095,64.8648804 Z" id="Combined-Shape" fill="#C72C77" mask="url(#mask-4)"></path>
                    </g>
                    <use id="frosting" stroke="#E1C508" mask="url(#mask-6)" stroke-width="8" fill="#E9D73B" xlink:href="#path-5"></use>
                    <g id="Candle" transform="translate(177.985948, 0.000000)">
                        <g id="Flame">
                            <path d="M3.5328984,0 C3.5328984,0 12.442317,9.02002272 12.9388648,12.7682368 C13.4354126,16.5164509 6.08188661,19.2411565 6.08188661,19.2411565 C6.08188661,19.2411565 0.697806231,15.6513198 0.066170131,10.8833853 C-0.565465969,6.11545068 3.5328984,0 3.5328984,0 Z" id="Path-2" fill="#EFC90E"></path>
                            <path d="M4.33062459,5.34897361 C4.33062459,5.34897361 10.7632563,11.8614618 11.1217655,14.5676856 C11.4802748,17.2739094 6.17100308,19.2411565 6.17100308,19.2411565 C6.17100308,19.2411565 2.28367805,16.6492818 1.82763455,13.2068162 C1.37159106,9.76435058 4.33062459,5.34897361 4.33062459,5.34897361 Z" id="Path-2" fill="#EF780E"></path>
                        </g>
                        <path d="M5.78454333,14.7096774 L7.56440281,25.4076246" id="String" stroke="#202020" stroke-linecap="square"></path>
                        <use id="Body" stroke="#169B51" mask="url(#mask-8)" stroke-width="2" fill="#15B458" xlink:href="#path-7"></use>
                    </g>
                </g>
            </g>
        </g>
    </g>
</svg>