<?xml version="1.0" encoding="UTF-8" standalone="no"?>
<svg width="279px" height="595px" viewBox="0 0 279 595" version="1.1" xmlns="http://www.w3.org/2000/svg" xmlns:xlink="http://www.w3.org/1999/xlink">
    <!-- Generator: Sketch 39.1 (31720) - http://www.bohemiancoding.com/sketch -->
    <title>Monkey</title>
    <desc>Created with Sketch.</desc>
    <defs>
        <radialGradient cx="49.9999802%" cy="49.9992511%" fx="49.9999802%" fy="49.9992511%" r="41.9548613%" id="radialGradient-1">
            <stop stop-color="#B2804B" offset="0%"></stop>
            <stop stop-color="#B07E4A" offset="50.9%"></stop>
            <stop stop-color="#A97845" offset="69.24%"></stop>
            <stop stop-color="#9E6D3D" offset="82.3%"></stop>
            <stop stop-color="#8D5D31" offset="92.79%"></stop>
            <stop stop-color="#7C4D25" offset="100%"></stop>
        </radialGradient>
        <radialGradient cx="50.2778713%" cy="51.914038%" fx="50.2778713%" fy="51.914038%" r="35.4394081%" id="radialGradient-2">
            <stop stop-color="#CA9E64" stop-opacity="0" offset="0%"></stop>
            <stop stop-color="#C69B62" stop-opacity="0.1822" offset="18.22%"></stop>
            <stop stop-color="#BB915C" stop-opacity="0.3523" offset="35.23%"></stop>
            <stop stop-color="#A88152" stop-opacity="0.5175" offset="51.75%"></stop>
            <stop stop-color="#8E6A44" stop-opacity="0.6798" offset="67.98%"></stop>
            <stop stop-color="#6B4D32" stop-opacity="0.8398" offset="83.98%"></stop>
            <stop stop-color="#42291C" stop-opacity="0.9964" offset="99.64%"></stop>
            <stop stop-color="#41281B" offset="100%"></stop>
        </radialGradient>
        <linearGradient x1="1.09655959%" y1="59.1287962%" x2="99.9282748%" y2="43.6971492%" id="linearGradient-3">
            <stop stop-color="#673B15" offset="0%"></stop>
            <stop stop-color="#6E421B" stop-opacity="0.8333" offset="16.67%"></stop>
            <stop stop-color="#83572B" stop-opacity="0.5819" offset="41.81%"></stop>
            <stop stop-color="#A57946" stop-opacity="0.2789" offset="72.11%"></stop>
            <stop stop-color="#CA9E64" stop-opacity="0" offset="100%"></stop>
        </linearGradient>
        <linearGradient x1="100.410424%" y1="29.2650127%" x2="-0.00165850985%" y2="57.7099492%" id="linearGradient-4">
            <stop stop-color="#673B15" offset="0%"></stop>
            <stop stop-color="#6E421B" stop-opacity="0.8333" offset="16.67%"></stop>
            <stop stop-color="#83572B" stop-opacity="0.5819" offset="41.81%"></stop>
            <stop stop-color="#A57946" stop-opacity="0.2789" offset="72.11%"></stop>
            <stop stop-color="#CA9E64" stop-opacity="0" offset="100%"></stop>
        </linearGradient>
        <linearGradient x1="29.2194158%" y1="11.2413217%" x2="67.2776795%" y2="98.0013355%" id="linearGradient-5">
            <stop stop-color="#673B15" offset="0%"></stop>
            <stop stop-color="#6E421B" stop-opacity="0.8333" offset="16.67%"></stop>
            <stop stop-color="#83572B" stop-opacity="0.5819" offset="41.81%"></stop>
            <stop stop-color="#A57946" stop-opacity="0.2789" offset="72.11%"></stop>
            <stop stop-color="#CA9E64" stop-opacity="0" offset="100%"></stop>
        </linearGradient>
        <linearGradient x1="0.405172487%" y1="49.4576723%" x2="93.7821209%" y2="49.9823421%" id="linearGradient-6">
            <stop stop-color="#B2804B" offset="0%"></stop>
            <stop stop-color="#B88751" stop-opacity="0.6184" offset="38.16%"></stop>
            <stop stop-color="#C89C62" stop-opacity="0.0447" offset="95.53%"></stop>
            <stop stop-color="#CA9E64" stop-opacity="0" offset="100%"></stop>
        </linearGradient>
        <linearGradient x1="25.936534%" y1="42.0204802%" x2="76.8726656%" y2="83.7874001%" id="linearGradient-7">
            <stop stop-color="#58585A" offset="0%"></stop>
            <stop stop-color="#7E6F5D" stop-opacity="0.7923" offset="20.77%"></stop>
            <stop stop-color="#9F8460" stop-opacity="0.5725" offset="42.75%"></stop>
            <stop stop-color="#B79262" stop-opacity="0.3617" offset="63.83%"></stop>
            <stop stop-color="#C59B64" stop-opacity="0.166" offset="83.4%"></stop>
            <stop stop-color="#CA9E64" stop-opacity="0" offset="100%"></stop>
        </linearGradient>
        <linearGradient x1="108.536392%" y1="51.618933%" x2="-7.51245496%" y2="46.586439%" id="linearGradient-8">
            <stop stop-color="#58585A" offset="0%"></stop>
            <stop stop-color="#7E6F5D" stop-opacity="0.7923" offset="20.77%"></stop>
            <stop stop-color="#9F8460" stop-opacity="0.5725" offset="42.75%"></stop>
            <stop stop-color="#B79262" stop-opacity="0.3617" offset="63.83%"></stop>
            <stop stop-color="#C59B64" stop-opacity="0.166" offset="83.4%"></stop>
            <stop stop-color="#CA9E64" stop-opacity="0" offset="100%"></stop>
        </linearGradient>
        <linearGradient x1="99.3458916%" y1="47.7854818%" x2="21.6641656%" y2="50.0094241%" id="linearGradient-9">
            <stop stop-color="#B2804B" offset="0%"></stop>
            <stop stop-color="#B88751" stop-opacity="0.6184" offset="38.16%"></stop>
            <stop stop-color="#C89C62" stop-opacity="0.0447" offset="95.53%"></stop>
            <stop stop-color="#CA9E64" stop-opacity="0" offset="100%"></stop>
        </linearGradient>
        <linearGradient x1="-0.169202109%" y1="43.0611827%" x2="99.6129829%" y2="52.5145134%" id="linearGradient-10">
            <stop stop-color="#B2804B" offset="0%"></stop>
            <stop stop-color="#B88751" stop-opacity="0.6184" offset="38.16%"></stop>
            <stop stop-color="#C89C62" stop-opacity="0.0447" offset="95.53%"></stop>
            <stop stop-color="#CA9E64" stop-opacity="0" offset="100%"></stop>
        </linearGradient>
        <linearGradient x1="-0.000805370663%" y1="49.9989663%" x2="100.000652%" y2="49.9989663%" id="linearGradient-11">
            <stop stop-color="#B2804B" offset="0%"></stop>
            <stop stop-color="#BF9058" stop-opacity="0.7146" offset="28.54%"></stop>
            <stop stop-color="#C79B61" stop-opacity="0.381" offset="61.9%"></stop>
            <stop stop-color="#CA9E64" stop-opacity="0" offset="100%"></stop>
        </linearGradient>
        <linearGradient x1="65.0517616%" y1="93.3204751%" x2="19.701152%" y2="7.30758681%" id="linearGradient-12">
            <stop stop-color="#CA9E64" stop-opacity="0" offset="0%"></stop>
            <stop stop-color="#BF9058" stop-opacity="0.4146" offset="41.46%"></stop>
            <stop stop-color="#B2804B" offset="100%"></stop>
        </linearGradient>
        <linearGradient x1="50%" y1="25.7425802%" x2="50%" y2="88.9903322%" id="linearGradient-13">
            <stop stop-color="#E24CA5" offset="0%"></stop>
            <stop stop-color="#C1256C" offset="100%"></stop>
        </linearGradient>
        <path d="M101.50458,14.4975446 C117.983477,94.7504342 189.340947,187.077603 189.340947,187.077603 L13.6682132,187.077603 C13.6682132,187.077603 29.734435,48.7279729 101.50458,14.4975446 Z" id="path-14"></path>
    </defs>
    <g id="Page-1" stroke="none" stroke-width="1" fill="none" fill-rule="evenodd">
        <g id="Desktop" transform="translate(-193.000000, -344.000000)">
            <g id="Monkey" transform="translate(193.000000, 344.000000)">
                <g>
                    <g id="Body" transform="translate(19.052960, 315.254731)">
                        <path d="M1.52910826,274.278111 L233.601733,274.278111 C233.601733,274.278111 298.832407,0.23681996 137.376168,0.23681996 C-24.0800706,0.23681996 1.52910826,274.278111 1.52910826,274.278111 Z" id="Chest" fill="#452A17"></path>
                        <path d="M34.4797722,279.108616 L208.72371,279.108616 C208.72371,279.108616 257.699971,73.3539137 136.475976,73.3539137 C15.2519801,73.3539137 34.4797722,279.108616 34.4797722,279.108616 Z" id="Torso" fill="#CCAB7F"></path>
                    </g>
                    <g id="Party-head">
                        <g id="squareMonkey" transform="translate(0.000000, 142.012373)">
                            <g id="Capa_1">
                                <g>
                                    <g id="Group">
                                        <g opacity="0.82" transform="translate(105.736527, 231.889908)" id="Shape" fill="#28170C">
                                            <g>
                                                <path d="M0.420335329,43.4441835 C0.420335329,43.4441835 70.0837365,-43.7802936 134.546467,30.0362569 C134.546467,30.0336514 78.208479,-35.8621651 0.420335329,43.4441835 L0.420335329,43.4441835 Z"></path>
                                                <path d="M6.46167665,66.6331743 C6.46167665,66.6331743 61.0347784,-30.3411009 136.687305,32.4724037 C136.684695,32.4724037 70.3448144,-23.7960734 6.46167665,66.6331743 L6.46167665,66.6331743 Z"></path>
                                                <g transform="translate(144.245509, 3.908257)">
                                                    <path d="M115.699257,22.5532477 C115.699257,22.5532477 40.360024,-36.2842569 1.79360479,37.3629358 C1.79621557,37.3629358 35.2141796,-28.1524771 115.699257,22.5532477 L115.699257,22.5532477 Z"></path>
                                                    <path d="M114.949964,39.8668257 C114.949964,39.8668257 48.0487665,-28.0586789 0.0443832335,40.070055 C0.046994012,40.070055 41.8742754,-20.6564404 114.949964,39.8668257 L114.949964,39.8668257 Z"></path>
                                                </g>
                                            </g>
                                        </g>
                                        <path d="M435.112335,116.458239 C430.313725,79.7102018 403.263449,52.8370275 374.683257,56.4143853 C366.143401,57.4826422 358.452048,61.1564037 351.977317,66.750422 C330.68903,37.0111927 299.210874,15.2369908 263.169078,5.6826055 C246.360886,2.28763303 231.656982,0.482018349 214.00812,0.482018349 C209.862204,0.685247706 205.695401,1.03177982 201.505102,1.55027523 C134.593461,9.91133945 82.769509,57.8578349 67.3398084,118.292514 C60.4499641,115.429064 53.098012,114.27222 45.6337964,115.204991 C17.0562156,118.777138 -2.23221557,151.44756 2.56117365,188.182569 C7.34934132,224.922789 34.4048383,251.798569 62.9902515,248.226422 C72.8877126,246.986202 81.6625389,242.257211 88.7168623,235.081651 C119.795569,271.087119 175.167569,279.89633 236.813269,272.191853 C303.889389,263.804734 358.765341,238.315083 375.414275,188.109615 C380.797701,189.631229 386.376934,190.134092 392.037102,189.417578 C420.609461,185.855853 439.900503,153.188037 435.112335,116.458239 L435.112335,116.458239 Z" id="Shape" stroke="#1E1007" stroke-width="0.2585" fill="#452A17"></path>
                                        <path d="M433.266515,106.255083 C431.50685,135.996917 413.93109,160.103046 389.606467,163.14367 C383.951521,163.849761 378.351401,163.346899 372.994084,161.830495 C356.339928,212.028147 301.469198,237.512587 234.377413,245.904917 C172.742156,253.609394 117.375377,244.789761 86.2862275,208.797321 C79.234515,215.972881 70.4570778,220.694055 60.5596168,221.93167 C34.0132216,225.253688 8.80354491,202.304404 1.5011976,169.597505 C1.19573653,174.813725 1.35760479,180.207119 2.07817964,185.686495 C6.86634731,222.431927 33.9218443,249.305101 62.5046467,245.725138 C72.3968862,244.484917 81.1821557,239.755927 88.2312575,232.590789 C119.309964,268.585835 174.681964,277.395046 236.335497,269.690569 C303.409006,261.30345 358.287569,235.819009 374.936503,185.616147 C380.312096,187.135156 385.899162,187.638018 391.554108,186.929321 C420.134299,183.35978 439.430563,150.689358 434.637174,113.949138 C434.297772,111.341028 433.827832,108.769394 433.266515,106.255083 L433.266515,106.255083 Z" id="Shape" fill="#28170C" opacity="0.82"></path>
                                        <g opacity="0.27" transform="translate(0.000000, 5.211009)" id="Shape" fill="#B3824A">
                                            <g>
                                                <path d="M263.320503,22.5793028 C308.565293,35.6511193 330.783018,55.7630092 352.066084,85.4970275 C358.546036,79.9082202 366.253054,76.2344587 374.772024,75.1714128 C401.997222,71.7660183 427.807377,95.9737615 434.349988,130.027706 C434.488359,125.564477 434.269054,120.989211 433.655521,116.354018 C428.851689,79.6137982 401.811856,52.7328073 373.226443,56.3153761 C364.686587,57.378422 357.000455,61.0521835 350.515281,66.6409908 C329.229605,36.914789 297.748838,15.1405872 261.712263,5.57317431 C242.687521,-0.768623853 212.553916,0.385614679 212.553916,0.385614679 C208.402778,0.581027523 204.233365,0.930165138 200.045677,1.45387156 C133.144479,9.82014679 81.3257485,57.7536147 65.8960479,118.185688 C59.0035928,115.330055 51.6542515,114.175817 44.1926467,115.105982 C15.6124551,118.678128 -3.67336527,151.353761 1.1148024,188.080954 C1.34977246,189.837064 1.63695808,191.551486 1.96330539,193.265908 C2.88752096,162.406312 20.7582994,137.086018 45.733006,133.959413 C53.1998323,133.031853 60.557006,134.183486 67.4364072,137.046936 C82.8661078,76.6226789 134.692671,28.6761835 201.609533,20.3099083 C205.426491,19.8226789 236.565246,17.8008073 263.320503,22.5793028 L263.320503,22.5793028 Z"></path>
                                            </g>
                                        </g>
                                        <path d="M60.9172934,122.190349 C60.9172934,122.190349 81.7121437,70.4684771 123.213078,36.3650275 C148.54285,15.5366239 181.167138,0.304844037 218.634419,1.15423853 C244.990228,2.49346789 261.117006,6.17244037 262.730467,6.28447706 C323.822683,27.9674862 330.18776,41.8209541 352.878036,68.6732844 C352.878036,68.6732844 275.865293,42.2222018 196.340982,51.5889908 C150.662802,56.9589358 79.4825389,114.676073 60.9172934,122.190349 L60.9172934,122.190349 Z" id="Shape" fill="#94633A" opacity="0.34"></path>
                                        <g transform="translate(77.670659, 30.614679)" id="Shape">
                                            <path d="M138.786371,47.6520734 C138.786371,47.6520734 33.1621078,-13.4157431 5.34165269,79.514789 C-8.63123353,126.189798 3.39662275,167.830972 78.0335569,220.292807 C157.29679,276.006312 237.528623,221.718018 262.730467,150.874349 C275.136886,115.994459 289.224647,75.4528073 264.260383,35.789211 C264.260383,35.789211 192.881701,-51.4170275 138.786371,47.6520734 L138.786371,47.6520734 Z" fill="url(#radialGradient-1)"></path>
                                            <path d="M138.786371,47.6520734 C138.786371,47.6520734 33.1621078,-13.4157431 5.34165269,79.514789 C-8.63123353,126.189798 3.39662275,167.830972 78.0335569,220.292807 C157.29679,276.006312 237.528623,221.718018 262.730467,150.874349 C275.136886,115.994459 289.224647,75.4528073 264.260383,35.789211 C264.260383,35.789211 192.881701,-51.4170275 138.786371,47.6520734 L138.786371,47.6520734 Z" stroke="#49250A" stroke-width="0.2585"></path>
                                        </g>
                                        <path d="M85.2419162,137.396073 C113.05715,44.4681468 218.676192,105.541174 218.676192,105.541174 C272.776743,6.46946789 344.155425,93.6678899 344.155425,93.6678899 C349.875641,102.761101 353.538563,111.901211 355.632407,121.012661 C356.574898,103.279596 353.29576,85.1192294 341.980647,67.1282202 C341.980647,67.1282202 270.601964,-20.0754128 216.509246,78.9962936 C216.509246,78.9962936 110.884982,17.9258716 83.0671377,110.853798 C77.7646467,128.573835 76.2242874,145.559119 80.4015329,162.687706 C80.9994012,154.360514 82.675521,145.965578 85.2419162,137.396073 L85.2419162,137.396073 Z" id="Shape" fill="#CA9F6A" opacity="0.47"></path>
                                        <path d="M293.080766,209.620661 C293.080766,209.620661 320.987377,203.32055 325.527521,231.056147 C326.245485,235.467266 324.527593,245.472404 326.394299,252.033064 C336.281317,286.826972 351.405557,333.413394 224.962946,345.159009 C224.962946,345.159009 131.922635,370.526202 143.937437,278.291339 C143.937437,278.291339 132.264647,249.578679 161.497533,235.41255 L293.080766,209.620661 L293.080766,209.620661 Z" id="Shape" fill="#B2804B"></path>
                                        <path d="M287.869653,268.564991 C287.869653,268.564991 309.933341,282.402826 297.359832,299.322972" id="Shape" stroke="#4D3C34" stroke-width="0.2585"></path>
                                        <path d="M203.799976,182.301945 C205.335114,182.111743 222.472263,170.465138 244.42891,177.221211" id="Shape" stroke="#875529" stroke-width="0.7755"></path>
                                        <path d="M198.818611,178.99556 C200.348527,178.813174 219.381102,163.09156 248.68709,173.200917" id="Shape" stroke="#875529" stroke-width="0.7755"></path>
                                        <path d="M149.148551,264.779193 C149.148551,264.779193 293.482826,444.084807 323.313581,243.122239 C323.313581,243.122239 343.706371,297.155193 322.499018,314.356734 C301.291665,331.566092 228.618036,348.720734 207.930228,350.471633 C173.833461,353.361138 134.024311,338.040771 142.329198,284.315266" id="Shape" fill="url(#radialGradient-2)" opacity="0.65"></path>
                                        <path d="M325.195952,261.665615 C329.065126,309.028477 292.994611,350.492477 244.62994,354.288697 C196.254826,358.074495 153.894946,322.756881 150.020551,275.401835 C146.151377,228.038972 182.232335,186.569761 230.602228,182.786569 C278.966898,178.985138 321.329389,214.307963 325.195952,261.665615 L325.195952,261.665615 Z" id="Shape" stroke="#563304" stroke-width="0.2585" fill="#CCAB7F"></path>
                                        <path d="M231.753581,201.418532 C277.280335,197.851596 317.465437,228.924844 325.266443,272.077211 C325.308216,269.328404 325.229892,266.566569 324.994922,263.770862 C321.13097,216.408 278.776311,181.095596 230.393365,184.881394 C182.031305,188.669798 145.942515,230.139009 149.824743,277.494055 C150.044048,280.287156 150.422611,283.025541 150.910826,285.72745 C151.597461,241.926312 186.224216,204.985468 231.753581,201.418532 L231.753581,201.418532 Z" id="Shape" fill="#B2804B" opacity="0.47"></path>
                                        <g transform="translate(97.904192, 26.706422)" id="Shape" fill="#B2804B">
                                            <path d="M0.634419162,63.8374679 C0.634419162,63.8374679 59.296,-12.2354495 115.889844,50.3670092 C115.889844,50.3696147 66.4025389,-5.54711927 0.634419162,63.8374679 L0.634419162,63.8374679 Z"></path>
                                            <path d="M6.18232335,83.7148624 C6.18232335,83.7148624 51.7090778,-0.547155963 117.764383,52.4331743 C117.764383,52.4357798 59.8103234,4.96088073 6.18232335,83.7148624 L6.18232335,83.7148624 Z"></path>
                                            <g transform="translate(118.790419, 0.000000)">
                                                <path d="M91.8706826,7.32407339 C91.8706826,7.32407339 15.1111856,-23.5277064 1.3811018,46.4483303 C1.3811018,46.4457248 12.8659162,-15.5861284 91.8706826,7.32407339 L91.8706826,7.32407339 Z"></path>
                                                <path d="M95.5127186,21.8002569 C95.5127186,21.8002569 23.497006,-18.5381651 0.605700599,49.0981284 C0.605700599,49.0955229 20.2178683,-10.9639633 95.5127186,21.8002569 L95.5127186,21.8002569 Z"></path>
                                            </g>
                                        </g>
                                        <path d="M253.18024,160.306275 C253.18024,160.306275 296.722802,163.727303 282.603713,137.427339" id="Shape" fill="url(#linearGradient-3)"></path>
                                        <path d="M271.332982,140.019817 C272.63315,150.009321 265.416958,159.133798 255.224479,160.405284 C245.026778,161.681982 235.698467,154.613248 234.398299,144.634165 C233.09291,134.657688 240.309102,125.525394 250.506802,124.248697 C260.699281,122.977211 270.027593,130.045945 271.332982,140.019817 L271.332982,140.019817 Z" id="Shape" fill="#391E0D"></path>
                                        <path d="M269.609868,138.891633 C270.860431,148.425174 263.954922,157.145798 254.219329,158.362569 C244.470683,159.587156 235.565317,152.849321 234.325198,143.302752 C233.074635,133.771817 239.96709,125.040771 249.718347,123.829211 C259.461772,122.607229 268.369749,129.360697 269.609868,138.891633 L269.609868,138.891633 Z" id="Shape" fill="#160A03" opacity="0.47"></path>
                                        <path d="M260.649677,141.945284 C261.13006,147.773798 256.678683,152.877982 250.720886,153.349578 C244.765701,153.826385 239.549365,149.462165 239.06376,143.633651 C238.578156,137.81556 243.034754,132.698349 248.997772,132.234569 C254.952958,131.760367 260.164072,136.11156 260.649677,141.945284 L260.649677,141.945284 Z" id="Shape" fill="#452A17"></path>
                                        <path d="M192.10891,169.813761 C192.10891,169.813761 146.281916,186.07211 162.348647,155.457431" id="Shape" fill="url(#linearGradient-4)"></path>
                                        <path d="M169.67188,153.576257 C170.013892,163.641321 178.616407,171.525578 188.88721,171.19989 C199.165844,170.866385 207.217485,162.453211 206.885916,152.38033 C206.554347,142.330899 197.938778,134.43622 187.670587,134.767119 C177.397174,135.095413 169.33509,143.52422 169.67188,153.576257 L169.67188,153.576257 Z" id="Shape" fill="#391E0D"></path>
                                        <path d="M171.191353,152.192734 C171.517701,161.801835 179.73121,169.331743 189.545126,169.016477 C199.356431,168.701211 207.055617,160.665835 206.734491,151.054128 C206.408144,141.445028 198.194635,133.907303 188.380719,134.217358 C178.564192,134.532624 170.865006,142.586239 171.191353,152.192734 L171.191353,152.192734 Z" id="Shape" fill="#160A03" opacity="0.47"></path>
                                        <path d="M180.535329,153.805541 C181.013102,159.636661 186.229437,163.982642 192.179401,163.516257 C198.137198,163.052477 202.583353,157.948294 202.108192,152.117174 C201.630419,146.28345 196.414084,141.942679 190.456287,142.401248 C184.501102,142.865028 180.062778,147.971817 180.535329,153.805541 L180.535329,153.805541 Z" id="Shape" fill="#452A17"></path>
                                        <path d="M184.939713,155.642422 C183.848407,158.531927 185.362659,161.744514 188.328503,162.817982 C191.276072,163.886239 194.560431,162.401101 195.651737,159.506385 C196.743042,156.614275 195.22879,153.393872 192.270778,152.330826 C189.312766,151.26778 186.025796,152.747706 184.939713,155.642422 L184.939713,155.642422 Z" id="Shape" fill="#239392"></path>
                                        <path d="M246.749892,146.689908 C245.663808,149.589835 247.17806,152.805028 250.136072,153.865468 C253.094084,154.933725 256.378443,153.456404 257.469749,150.556477 C258.561054,147.661761 257.046802,144.438752 254.083569,143.380917 C251.120335,142.315266 247.846419,143.803009 246.749892,146.689908 L246.749892,146.689908 Z" id="Shape" fill="#239392"></path>
                                        <g transform="translate(198.419162, 179.779817)" id="Shape">
                                            <path d="M0.689245509,36.3285505 C2.64210778,47.8917798 40.3704671,39.9215413 55.0091018,30.8283303 C59.2098443,28.2071927 59.4996407,16.9878899 58.9644311,16.5840367 C47.9730539,8.30113761 15.8082635,-10.7529174 0.689245509,36.3285505" fill="url(#linearGradient-5)"></path>
                                            <g opacity="0.98" fill="#28170C">
                                                <g>
                                                    <path d="M26.1965509,9.3746055 C40.5897725,5.69302752 54.7793533,11.1046606 60.1497246,21.6126606 C60.0792335,20.2135046 59.8834251,18.8091376 59.5231377,17.4099817 C56.0246946,4.32774312 40.1302754,-2.92598165 24.0061078,1.19592661 C7.88716168,5.31783486 -2.34186826,19.2677064 1.15918563,32.3473394 C1.52730539,33.7464954 2.07295808,35.0648807 2.70998802,36.3181284 C2.12517365,24.5803303 11.8007186,13.058789 26.1965509,9.3746055 L26.1965509,9.3746055 Z"></path>
                                                    <path d="M19.8836886,24.5751193 C24.6666347,23.3479266 29.5331257,25.7345688 31.5199281,29.9893578 C31.4703234,29.4291743 31.3737246,28.8742018 31.2353533,28.3062018 C29.8411976,23.0561101 24.3611737,19.9164771 19.0116886,21.3026055 C13.6543713,22.6600734 10.4457246,28.0300183 11.8477126,33.2722936 C11.9939162,33.8272661 12.2001677,34.3613945 12.4377485,34.8694679 C12.0409102,30.1977982 15.1007425,25.7892844 19.8836886,24.5751193 L19.8836886,24.5751193 Z"></path>
                                                    <path d="M42.3285509,19.7002202 C37.4986108,20.732 34.2690778,25.0232661 34.4779401,29.7001468 C34.2638563,29.1712294 34.0837126,28.6423119 33.9531737,28.0769174 C32.7678802,22.7903486 36.1801677,17.5480734 41.584479,16.3990459 C46.9887904,15.2395963 52.3382754,18.5772477 53.5261796,23.8481835 C53.6541078,24.434422 53.7141557,24.992 53.745485,25.5417615 C51.9257725,21.2166239 47.1532695,18.6502018 42.3285509,19.7002202 L42.3285509,19.7002202 Z"></path>
                                                    <path d="M31.4233293,28.4416881 C31.6426347,31.1540183 29.577509,33.5093945 26.8100838,33.7386789 C24.0374371,33.9523303 21.6276886,31.9278532 21.4031617,29.225945 C21.1890778,26.5188257 23.2411497,24.1530275 26.0137964,23.9393761 C28.7733892,23.7205138 31.1935808,25.7397798 31.4233293,28.4416881 L31.4233293,28.4416881 Z"></path>
                                                    <path d="M44.8688383,27.3890642 C45.0881437,30.0961835 43.0282395,32.4619817 40.2582036,32.675633 C37.4986108,32.8997064 35.0784192,30.8804404 34.8538922,28.1707156 C34.6345868,25.4583853 36.6997126,23.0873761 39.4697485,22.8737248 C42.2319521,22.6652844 44.6443114,24.6767339 44.8688383,27.3890642 L44.8688383,27.3890642 Z"></path>
                                                </g>
                                            </g>
                                        </g>
                                        <g transform="translate(170.353293, 254.036697)" id="Shape">
                                            <path d="M133.91988,25.9013211 C133.91988,25.9013211 91.3171976,27.3525872 64.5671617,15.4532477 C50.9571737,9.39805505 12.3881437,-17.0895046 4.99441916,18.3297248 C4.99441916,18.3297248 28.7864431,82.2193028 115.555665,47.3706789 C126.050994,43.157578 121.672719,35.1326239 133.91988,25.9013211 L133.91988,25.9013211 Z" stroke="#4C2505" stroke-width="0.517" fill="#FEEECC"></path>
                                            <path d="M5.27638323,7.46477064 C5.27638323,7.46477064 -5.87164072,19.596 4.62891018,31.6308257" fill="url(#linearGradient-6)"></path>
                                            <path d="M122.529054,41.0783853 C122.529054,41.0783853 120.646683,37.6234862 116.174419,37.3030092 C114.874251,37.2170275 108.556168,49.5775413 106.736455,48.9470092" fill="url(#linearGradient-7)"></path>
                                            <path d="M5.96301796,17.897211 C5.96301796,17.897211 9.57894611,16.198422 13.3776287,18.5277431 C14.4741557,19.2051743 12.1061796,32.8319633 13.9624431,33.3765138" fill="url(#linearGradient-8)"></path>
                                            <path d="M136.102491,40.1065321 C136.102491,40.1065321 148.64206,21.9904587 132.436958,7.90510092" fill="url(#linearGradient-9)"></path>
                                            <path d="M6.27892216,18.5121101 C6.27892216,18.5121101 12.1740599,11.4537982 13.0199521,13.0718165 C15.9492455,18.6449908 23.6484311,32.0998165 26.7735329,27.4984954 C30.8097964,21.5344954 27.1233772,14.6299083 27.1233772,14.6299083 C27.1233772,14.6299083 31.1361437,37.8006606 39.7856527,32.5375413 C48.4299401,27.290055 98.5490539,32.675633 98.5490539,32.675633 C98.5490539,32.675633 106.71818,45.2107156 110.078251,35.200367 L113.438323,25.2004404 C113.438323,25.2004404 107.376096,45.5546422 113.05715,39.5619817 C120.296838,31.9226422 115.43818,44.1971743 127.361605,32.2353028" stroke="#4D3C34" stroke-width="0.2585"></path>
                                            <path d="M25.1417964,53.8140917 C25.1417964,53.8140917 41.1876407,59.666055 55.5495329,62.0370642 C74.743976,65.2131743 109.749293,60.0568807 118.806084,48.5197064 C118.816527,48.5223119 75.3496766,103.435927 25.1417964,53.8140917 L25.1417964,53.8140917 Z" fill="url(#linearGradient-10)"></path>
                                            <path d="M33.3970778,56.5576881 C33.3970778,56.5576881 49.4037605,61.3413945 57.2595928,62.6337248 C67.7575329,64.3689908 96.1862994,64.6191193 101.152,58.3085872 C101.146778,58.3085872 60.8494132,83.6914128 33.3970778,56.5576881 L33.3970778,56.5576881 Z" fill="#28170C" opacity="0.26"></path>
                                        </g>
                                        <path d="M33.937509,202.807266 C16.8029701,189.21956 10.9313293,167.864844 19.0377964,152.362092 C17.3903952,153.675266 15.8317605,155.129138 14.4532695,156.796661 C1.56385629,172.372367 6.67837126,197.335706 25.8702036,212.551853 C45.0750898,227.768 71.0706108,227.481394 83.9652455,211.905688 C85.338515,210.245982 86.4742036,208.450789 87.4428024,206.598275 C73.6396168,217.590899 51.0772695,216.400183 33.937509,202.807266 L33.937509,202.807266 Z" id="Shape" fill="url(#linearGradient-11)"></path>
                                        <path d="M414.654275,128.321101 C407.383257,148.701358 388.831066,161.332844 371.184814,159.097321 C373.009749,160.165578 374.939114,161.106165 377.00424,161.825284 C396.334443,168.422422 418.614826,155.275046 426.757844,132.458642 C434.900862,109.608367 425.833629,85.757578 406.48776,79.1526239 C404.433078,78.4439266 402.320958,78.0009908 400.216671,77.7222018 C415.450563,86.7398532 421.920072,107.927817 414.654275,128.321101 L414.654275,128.321101 Z" id="Shape" fill="url(#linearGradient-12)"></path>
                                    </g>
                                </g>
                            </g>
                        </g>
                        <g id="Party-hat" transform="translate(15.302752, 1.910480)">
                            <mask id="mask-15" fill="white">
                                <use xlink:href="#path-14"></use>
                            </mask>
                            <use id="Mask" fill="url(#linearGradient-13)" transform="translate(101.504580, 100.787574) rotate(-10.000000) translate(-101.504580, -100.787574) " xlink:href="#path-14"></use>
                            <g id="stripes" mask="url(#mask-15)" fill="#CACCCA">
                                <g transform="translate(-27.417431, 14.543227)" id="Rectangle">
                                    <rect transform="translate(120.970815, 75.173306) rotate(10.000000) translate(-120.970815, -75.173306) " x="46.6887045" y="60.5262902" width="148.56422" height="29.294032"></rect>
                                    <rect transform="translate(132.447879, 28.048124) rotate(10.000000) translate(-132.447879, -28.048124) " x="58.1657687" y="13.4011083" width="148.56422" height="29.294032"></rect>
                                    <rect transform="translate(132.476962, 125.746126) rotate(10.000000) translate(-132.476962, -125.746126) " x="30.9723817" y="111.09911" width="203.00916" height="29.294032"></rect>
                                    <rect transform="translate(102.509072, 168.413520) rotate(10.000000) translate(-102.509072, -168.413520) " x="1.00449177" y="153.766504" width="203.00916" height="29.294032"></rect>
                                </g>
                            </g>
                        </g>
                        <polygon id="Star" stroke-opacity="0.6" stroke="#A27E23" fill="#FFBE27" points="101.380734 25.7914847 91.2616603 31.1048228 93.1942314 19.8509922 85.0077289 11.8809851 96.3211971 10.2390733 101.380734 0 106.440271 10.2390733 117.753739 11.8809851 109.567236 19.8509922 111.499808 31.1048228"></polygon>
                    </g>
                </g>
            </g>
        </g>
    </g>
</svg>